<svg xmlns="http://www.w3.org/2000/svg" xmlns:xlink="http://www.w3.org/1999/xlink" viewBox="0 0 427.83 131.37"><defs><style>.cls-1{isolation:isolate;}.cls-2{fill:#4d525a;}.cls-3{fill:url(#linear-gradient);}.cls-11,.cls-13,.cls-15,.cls-19,.cls-4,.cls-5,.cls-7{mix-blend-mode:multiply;}.cls-13,.cls-15,.cls-5,.cls-7{opacity:0.3;}.cls-5{fill:url(#linear-gradient-2);}.cls-6{fill:url(#linear-gradient-3);}.cls-7{fill:url(#linear-gradient-4);}.cls-8{fill:url(#linear-gradient-5);}.cls-9{fill:url(#linear-gradient-6);}.cls-10{fill:url(#linear-gradient-7);}.cls-11{fill:url(#linear-gradient-8);}.cls-12{fill:url(#linear-gradient-9);}.cls-13{fill:url(#linear-gradient-10);}.cls-14{fill:url(#linear-gradient-11);}.cls-15{fill:url(#linear-gradient-12);}.cls-16{fill:url(#linear-gradient-13);}.cls-17{fill:url(#DH_Gradient);}.cls-18{fill:url(#DH_Gradient-2);}.cls-19{fill:url(#linear-gradient-14);}.cls-20{fill:none;}</style><linearGradient id="linear-gradient" x1="237.34" y1="268.8" x2="253.31" y2="300.85" gradientUnits="userSpaceOnUse"><stop offset="0.01" stop-color="#bf311a"/><stop offset="0.07" stop-color="#ca3b1c"/><stop offset="0.3" stop-color="#f15f24"/><stop offset="0.44" stop-color="#f69771"/><stop offset="0.59" stop-color="#fbcfbd"/><stop offset="0.69" stop-color="#fef2ed"/><stop offset="0.75" stop-color="#fff"/></linearGradient><linearGradient id="linear-gradient-2" x1="223.42" y1="283.02" x2="250.16" y2="283.02" gradientUnits="userSpaceOnUse"><stop offset="0.05" stop-color="#3c3a3c"/><stop offset="0.06" stop-color="#3f3d3f"/><stop offset="0.24" stop-color="#838183"/><stop offset="0.41" stop-color="#b8b7b8"/><stop offset="0.56" stop-color="#dfdedf"/><stop offset="0.67" stop-color="#f6f6f6"/><stop offset="0.75" stop-color="#fff"/></linearGradient><linearGradient id="linear-gradient-3" x1="-3041.14" y1="268.8" x2="-3025.18" y2="300.85" gradientTransform="matrix(-1, 0, 0, 1, -2772.76, 0)" xlink:href="#linear-gradient"/><linearGradient id="linear-gradient-4" x1="-3055.07" y1="283.02" x2="-3028.33" y2="283.02" gradientTransform="matrix(-1, 0, 0, 1, -2772.76, 0)" xlink:href="#linear-gradient-2"/><linearGradient id="linear-gradient-5" x1="70.51" y1="90.43" x2="86.48" y2="122.48" gradientTransform="translate(406.39 295.32) rotate(120)" xlink:href="#linear-gradient"/><linearGradient id="linear-gradient-6" x1="-2874.03" y1="90.59" x2="-2858.07" y2="122.64" gradientTransform="matrix(0.5, -0.87, -0.87, -0.5, 1792.77, -2105.57)" gradientUnits="userSpaceOnUse"><stop offset="0.01" stop-color="#ab2536"/><stop offset="0.13" stop-color="#ca3f2e"/><stop offset="0.3" stop-color="#f15f24"/><stop offset="0.44" stop-color="#f69771"/><stop offset="0.59" stop-color="#fbcfbd"/><stop offset="0.69" stop-color="#fef2ed"/><stop offset="0.75" stop-color="#fff"/></linearGradient><linearGradient id="linear-gradient-7" x1="-2874.03" y1="90.59" x2="-2858.07" y2="122.64" gradientTransform="matrix(0.5, -0.87, -0.87, -0.5, 1792.77, -2105.57)" xlink:href="#linear-gradient"/><linearGradient id="linear-gradient-8" x1="263.71" y1="307.45" x2="275.09" y2="354.88" gradientUnits="userSpaceOnUse"><stop offset="0.25" stop-color="#fff"/><stop offset="0.35" stop-color="#fbfbfb"/><stop offset="0.44" stop-color="#efefef"/><stop offset="0.54" stop-color="#dbdbdb"/><stop offset="0.63" stop-color="silver"/><stop offset="0.72" stop-color="#9c9c9c"/><stop offset="0.82" stop-color="#707070"/><stop offset="0.91" stop-color="#3c3c3c"/><stop offset="1" stop-color="#020202"/><stop offset="1"/></linearGradient><linearGradient id="linear-gradient-9" x1="117.23" y1="251.29" x2="133.19" y2="283.34" gradientTransform="translate(69.41 565.21) rotate(-120)" xlink:href="#linear-gradient"/><linearGradient id="linear-gradient-10" x1="103.31" y1="265.51" x2="130.04" y2="265.51" gradientTransform="translate(69.41 565.21) rotate(-120)" xlink:href="#linear-gradient-2"/><linearGradient id="linear-gradient-11" x1="-2920.75" y1="251.13" x2="-2904.78" y2="283.18" gradientTransform="matrix(0.5, 0.87, 0.87, -0.5, 1455.78, 2966.09)" xlink:href="#linear-gradient"/><linearGradient id="linear-gradient-12" x1="-2934.67" y1="265.35" x2="-2907.93" y2="265.35" gradientTransform="matrix(0.5, 0.87, 0.87, -0.5, 1455.78, 2966.09)" xlink:href="#linear-gradient-2"/><linearGradient id="linear-gradient-13" x1="251.58" y1="296.41" x2="274.77" y2="317.93" gradientUnits="userSpaceOnUse"><stop offset="0.26" stop-color="#f16724"/><stop offset="0.43" stop-color="#e85d25"/><stop offset="0.7" stop-color="#d14327"/><stop offset="0.72" stop-color="#cf4127"/><stop offset="1" stop-color="#bf311a"/></linearGradient><linearGradient id="DH_Gradient" x1="210.79" y1="296.89" x2="264.19" y2="346.44" gradientUnits="userSpaceOnUse"><stop offset="0.26" stop-color="#f26724"/><stop offset="0.43" stop-color="#e95d25"/><stop offset="0.7" stop-color="#d14327"/><stop offset="0.72" stop-color="#cf4127"/><stop offset="1" stop-color="#bf311a"/></linearGradient><linearGradient id="DH_Gradient-2" x1="234.96" y1="262.18" x2="289.98" y2="317.2" xlink:href="#DH_Gradient"/><linearGradient id="linear-gradient-14" x1="263.05" y1="312.01" x2="307.14" y2="305.15" xlink:href="#linear-gradient-8"/></defs><g class="cls-1"><g id="Full_Color_Pos" data-name="Full_Color Pos"><path class="cls-2" d="M312,291.19h9.23c10.5,0,16.22,5.86,16.22,14.64,0,9-6.4,15.05-16.71,15.05H312Zm8.83,25.27c7.84,0,10.81-4.95,10.81-10.54,0-6.21-3.65-10.31-10.9-10.31h-3.34v20.85Z" transform="translate(-182.08 -240.32)"/><path class="cls-2" d="M340.14,292.9a3.31,3.31,0,1,1,3.29,3.2A3.17,3.17,0,0,1,340.14,292.9Zm.59,6.67h5.4v21.31h-5.4Z" transform="translate(-182.08 -240.32)"/><path class="cls-2" d="M348,325.29a5.72,5.72,0,0,1,3.83-5.13,3,3,0,0,1-1.4-2.66,5.22,5.22,0,0,1,2.57-4,7.44,7.44,0,0,1-3.56-6.62c0-3.92,2.88-7.84,8.69-7.84a8.75,8.75,0,0,1,4.24,1,.49.49,0,0,0,.54-.09A6.5,6.5,0,0,1,368,298a11.14,11.14,0,0,1,1.44.09L368.37,302a6.53,6.53,0,0,0-1.57-.22,3.37,3.37,0,0,0-1.58.36,7.31,7.31,0,0,1,1.89,5c0,4.78-3.65,7.89-8.83,7.89a9.09,9.09,0,0,1-2.61-.36,2.9,2.9,0,0,0-.54,1.57c0,3.83,14,.27,14,8.25,0,3.87-3.88,7-11.26,7C351.62,331.55,348,329,348,325.29Zm16-.18c0-3.06-6.62-2.43-9.5-3.56a3.59,3.59,0,0,0-1.71,2.8c0,2.11,2.25,3.42,5.81,3.42C361.84,327.77,364,326.69,364,325.11Zm-2-18a3.81,3.81,0,0,0-3.83-4c-2.11,0-3.69,1.4-3.69,4a3.7,3.7,0,0,0,3.74,4A3.58,3.58,0,0,0,362,307.09Z" transform="translate(-182.08 -240.32)"/><path class="cls-2" d="M371.84,299.57h4.6L377,302a11.87,11.87,0,0,1,7.29-2.93c3.38,0,6.85,1.67,6.85,7.75v14.1h-5.41V308.45c0-2.62-.54-4.74-3.28-4.74A8.71,8.71,0,0,0,377.2,306v14.91h-5.36Z" transform="translate(-182.08 -240.32)"/><path class="cls-2" d="M394.27,292.9a3.31,3.31,0,0,1,6.62,0,3.24,3.24,0,0,1-3.34,3.2A3.17,3.17,0,0,1,394.27,292.9Zm.58,6.67h5.41v21.31h-5.41Z" transform="translate(-182.08 -240.32)"/><path class="cls-2" d="M407.46,315.61V303.76h-3.83v-4.19h3.83v-4.95l5.36-1.58v6.53h6.45L418,303.76h-5.14V314.3c0,2,.68,2.7,2.07,2.7a6,6,0,0,0,3.25-1l1.62,3.69a12.15,12.15,0,0,1-6.22,1.67C409.76,321.33,407.46,319.17,407.46,315.61Z" transform="translate(-182.08 -240.32)"/><path class="cls-2" d="M421.34,326.42a7.06,7.06,0,0,0,3.2.81c2.38,0,4.27-1.62,5.94-6.49l-9.6-21.17h5.59l6.44,15.14H433l5.18-15.14h5.45l-8.15,22c-3.33,8.88-6.85,10-10.72,10a11.8,11.8,0,0,1-4.78-1Z" transform="translate(-182.08 -240.32)"/><path class="cls-2" d="M454.19,291.19h5.4v12.26H474V291.19h5.45v29.69H474V308H459.59v12.84h-5.4Z" transform="translate(-182.08 -240.32)"/><path class="cls-2" d="M482.79,310.25c0-6.4,3.51-11.22,9.59-11.22s9.46,4.33,9.46,11.4v1.26H488.19c.09,3.29,2.43,5.4,6,5.4a10.71,10.71,0,0,0,5.41-1.44l1.62,3.7a14.31,14.31,0,0,1-7.52,2C485.89,321.33,482.79,316,482.79,310.25Zm13.6-2.3c-.09-2.43-1.26-4.82-4.1-4.82-2.66,0-4.15,2.25-4.15,4.82Z" transform="translate(-182.08 -240.32)"/><path class="cls-2" d="M517.2,318.85a8.76,8.76,0,0,1-6.13,2.48c-4.05,0-7.07-2.71-7.07-6.8a6.1,6.1,0,0,1,3.6-5.82,13.33,13.33,0,0,1,5.5-1.21l3.65-.14v-.67c0-2.48-1.62-3.56-4.1-3.56a12,12,0,0,0-5.59,1.49l-1.75-3.47a16.71,16.71,0,0,1,8.24-2.12c5.72,0,8.56,2.61,8.56,7.75v8.65a23.73,23.73,0,0,0,.4,5.45H518Zm-3.33-7.79a6.78,6.78,0,0,0-3.11.67,2.58,2.58,0,0,0-1.31,2.44c0,1.84,1.22,2.92,3.15,2.92a6.63,6.63,0,0,0,4.15-1.57V311Z" transform="translate(-182.08 -240.32)"/><path class="cls-2" d="M525.83,289h5.36v25.64c0,1.48.59,1.93,1.58,1.93a4.44,4.44,0,0,0,1.35-.27l1,4.15a10.51,10.51,0,0,1-4,.76c-3.55,0-5.36-1.75-5.36-5.13Z" transform="translate(-182.08 -240.32)"/><path class="cls-2" d="M538.45,315.61V303.76h-3.83v-4.19h3.83v-4.95l5.36-1.58v6.53h6.45L549,303.76h-5.14V314.3c0,2,.68,2.7,2.08,2.7a6,6,0,0,0,3.24-1l1.62,3.69a12.14,12.14,0,0,1-6.21,1.67C540.75,321.33,538.45,319.17,538.45,315.61Z" transform="translate(-182.08 -240.32)"/><path class="cls-2" d="M552.93,289h5.36v12.93a11.21,11.21,0,0,1,7.07-2.88c3.38,0,6.8,1.67,6.8,7.75v14.1H566.8V308.45c0-2.62-.54-4.74-3.29-4.74a8.59,8.59,0,0,0-5.22,2.26v14.91h-5.36Z" transform="translate(-182.08 -240.32)"/><path class="cls-3" d="M236.15,277.05c.36.18.72.37,1.07.57a16.77,16.77,0,0,1,8.34,15.72,16.06,16.06,0,0,0,3.09,1.14,17.29,17.29,0,0,0,2.79.47,22.89,22.89,0,0,0-13.92-23.87,26,26,0,0,0-.92,2.84A18,18,0,0,0,236.15,277.05Z" transform="translate(-182.08 -240.32)"/><g class="cls-4"><path class="cls-5" d="M236.15,277.05c.36.18.72.37,1.07.58a16.74,16.74,0,0,1,8.34,15.71,16.06,16.06,0,0,0,3.09,1.14,17.29,17.29,0,0,0,2.79.47,22.89,22.89,0,0,0-13.92-23.87,26.7,26.7,0,0,0-.92,2.84A17.07,17.07,0,0,0,236.15,277.05Z" transform="translate(-182.08 -240.32)"/></g><path class="cls-6" d="M269.58,277.05c-.36.18-.72.37-1.07.57a16.75,16.75,0,0,0-8.34,15.72,16.06,16.06,0,0,1-3.09,1.14,17.48,17.48,0,0,1-2.79.47,22.75,22.75,0,0,1,11.21-22.53,23.51,23.51,0,0,1,2.71-1.34,24.29,24.29,0,0,1,.91,2.84A17.31,17.31,0,0,1,269.58,277.05Z" transform="translate(-182.08 -240.32)"/><g class="cls-4"><path class="cls-7" d="M269.58,277.05c-.36.18-.72.37-1.07.58a16.73,16.73,0,0,0-8.34,15.71,16.06,16.06,0,0,1-3.09,1.14,17.48,17.48,0,0,1-2.79.47,22.75,22.75,0,0,1,11.21-22.53,23.51,23.51,0,0,1,2.71-1.34,26.7,26.7,0,0,1,.92,2.84A17.07,17.07,0,0,1,269.58,277.05Z" transform="translate(-182.08 -240.32)"/></g><path class="cls-8" d="M286.28,306c-.34.22-.69.44-1,.64a16.72,16.72,0,0,1-17.79-.64,17.3,17.3,0,0,0-2.52,2.11,17.89,17.89,0,0,0-1.81,2.18,22.78,22.78,0,0,0,25.12,1.56,23.35,23.35,0,0,0,2.51-1.68,27.34,27.34,0,0,0-2-2.21A18.72,18.72,0,0,0,286.28,306Z" transform="translate(-182.08 -240.32)"/><path class="cls-9" d="M269.56,335c0-.4,0-.82,0-1.22a16.75,16.75,0,0,0-9.44-15.08,16.66,16.66,0,0,1,.56-3.24,15.64,15.64,0,0,1,1-2.65,22.76,22.76,0,0,1,13.9,21,23.17,23.17,0,0,1-.2,3,25.8,25.8,0,0,1-2.91-.62A18.43,18.43,0,0,1,269.56,335Z" transform="translate(-182.08 -240.32)"/><path class="cls-10" d="M269.56,335c0-.4,0-.82,0-1.22a16.75,16.75,0,0,0-9.44-15.08,16.66,16.66,0,0,1,.56-3.24,15.64,15.64,0,0,1,1-2.65,22.76,22.76,0,0,1,13.9,21,23.17,23.17,0,0,1-.2,3,25.8,25.8,0,0,1-2.91-.62A18.43,18.43,0,0,1,269.56,335Z" transform="translate(-182.08 -240.32)"/><path class="cls-11" d="M261.71,312.77a15.64,15.64,0,0,0-1,2.65,16.66,16.66,0,0,0-.56,3.24,16.75,16.75,0,0,1,9.44,15.08c0,.4,0,.82,0,1.22a18.43,18.43,0,0,0,2.94,1.17,25.8,25.8,0,0,0,2.91.62,23.17,23.17,0,0,0,.2-3A22.76,22.76,0,0,0,261.71,312.77Z" transform="translate(-182.08 -240.32)"/><path class="cls-12" d="M236.16,335c0-.4,0-.81,0-1.21a16.72,16.72,0,0,1,9.44-15.08,16.76,16.76,0,0,0-.56-3.25,16.31,16.31,0,0,0-1-2.65,22.78,22.78,0,0,0-13.9,21,21.64,21.64,0,0,0,.2,3,26.86,26.86,0,0,0,2.91-.63A17.51,17.51,0,0,0,236.16,335Z" transform="translate(-182.08 -240.32)"/><g class="cls-4"><path class="cls-13" d="M236.16,335c0-.4,0-.81,0-1.21a16.72,16.72,0,0,1,9.44-15.08,16,16,0,0,0-.56-3.25,16.31,16.31,0,0,0-1-2.65,22.78,22.78,0,0,0-13.9,21,21.64,21.64,0,0,0,.2,3,25.48,25.48,0,0,0,2.91-.63A16.36,16.36,0,0,0,236.16,335Z" transform="translate(-182.08 -240.32)"/></g><path class="cls-14" d="M219.44,306c.34.23.69.45,1,.65a16.75,16.75,0,0,0,17.78-.64,16.69,16.69,0,0,1,2.52,2.11,16.49,16.49,0,0,1,1.81,2.18,22.76,22.76,0,0,1-25.12,1.55,23.27,23.27,0,0,1-2.51-1.67,25.72,25.72,0,0,1,2-2.21A19,19,0,0,1,219.44,306Z" transform="translate(-182.08 -240.32)"/><g class="cls-4"><path class="cls-15" d="M219.44,306c.34.23.69.45,1,.65a16.75,16.75,0,0,0,17.78-.64,16.69,16.69,0,0,1,2.52,2.11,16.49,16.49,0,0,1,1.81,2.18,22.76,22.76,0,0,1-25.12,1.55,23.27,23.27,0,0,1-2.51-1.67,25.53,25.53,0,0,1,2-2.21A18.36,18.36,0,0,1,219.44,306Z" transform="translate(-182.08 -240.32)"/></g><path class="cls-16" d="M271.14,341.91a3,3,0,0,0,3.66-2.15c.28-1,.61-3,.61-3a28.94,28.94,0,0,1-2.91-.62,18.75,18.75,0,0,1-4-1.75,16.75,16.75,0,1,1,16.75-29,18.94,18.94,0,0,1,3.51,2.59,29.28,29.28,0,0,1,2,2.21s1.58-1.3,2.3-2a3,3,0,0,0,0-4.25,23,23,0,0,0-4.83-3.73,22.76,22.76,0,0,0-22.76,39.43A23.43,23.43,0,0,0,271.14,341.91Z" transform="translate(-182.08 -240.32)"/><path class="cls-17" d="M212.64,303.89a3,3,0,0,0,0,4.25c.72.73,2.3,2,2.3,2a27.34,27.34,0,0,1,2-2.21,18.24,18.24,0,0,1,3.51-2.6,16.68,16.68,0,0,1,22.88,6.14,17,17,0,0,1,1.65,3.91,16.75,16.75,0,0,1-7.78,19,18.71,18.71,0,0,1-4,1.74,27.23,27.23,0,0,1-2.91.63s.33,2,.61,3a3,3,0,0,0,3.66,2.14,22.78,22.78,0,0,0,16.21-28.09,22.55,22.55,0,0,0-2.23-5.32,22.73,22.73,0,0,0-35.92-4.6Z" transform="translate(-182.08 -240.32)"/><path class="cls-18" d="M275.63,278.26a22.76,22.76,0,0,1-17,22,22.52,22.52,0,0,1-11.45,0,22.76,22.76,0,0,1-16.22-28.08,3,3,0,0,1,3.68-2.1c1,.26,2.92,1,2.92,1a27.88,27.88,0,0,0-.92,2.84,18.64,18.64,0,0,0-.49,4.34,16.75,16.75,0,0,0,12.54,16.22,17,17,0,0,0,8.43,0,16.76,16.76,0,0,0,12.54-16.22,18.13,18.13,0,0,0-.5-4.34,28.89,28.89,0,0,0-.91-2.84s1.91-.71,2.91-1a3,3,0,0,1,3.69,2.1A23,23,0,0,1,275.63,278.26Z" transform="translate(-182.08 -240.32)"/><path class="cls-19" d="M288.76,308a17.31,17.31,0,0,0-2.48-2c-.34.22-.69.44-1,.64a16.75,16.75,0,0,1-17.79-.64,17.3,17.3,0,0,0-2.52,2.11,17.89,17.89,0,0,0-1.81,2.18,22.78,22.78,0,0,0,25.12,1.56,24.94,24.94,0,0,0,2.51-1.68A27.12,27.12,0,0,0,288.76,308Z" transform="translate(-182.08 -240.32)"/><rect class="cls-20" width="427.83" height="131.37"/><path class="cls-2" d="M574.49,317.33a3.94,3.94,0,1,1,3.94,4,3.87,3.87,0,0,1-3.94-4m7.12,0a3.19,3.19,0,1,0-3.18,3.34,3.16,3.16,0,0,0,3.18-3.34m-4.49-2.22h1.14a2.14,2.14,0,0,1,.76.11,1.09,1.09,0,0,1,.78,1.06,1.16,1.16,0,0,1-1,1.14h0a8,8,0,0,1,1.26,2h-.79c-.57-1.07-.94-1.71-1.17-1.79h-.28v1.79h-.68Zm1,1.94c.52,0,.94-.18.94-.72a.56.56,0,0,0-.36-.58,1.4,1.4,0,0,0-.59-.08h-.3v1.38Z" transform="translate(-182.08 -240.32)"/></g></g></svg>